<?xml version="1.0" encoding="UTF-8"?>
<svg xmlns:xlink="http://www.w3.org/1999/xlink" version="1.1" width="450" height="434" xmlns="http://www.w3.org/2000/svg">
  <title>国道標識テスト</title>
  <desc>Aithor: Lincun</desc>
  <path fill-rule="evenodd" fill="blue" d="M375 20A600 600 0 0 0 75 20 100 100 0 0 0 4 144 600 600 0 0 0 154 403 100 100 0 0 0 296 403 600 600 0 0 0 446 144 100 100 0 0 0 375 20zM373 28A592 592 0 0 0 77 28 92 92 0 0 0 11 141 592 592 0 0 0 159 398 92 92 0 0 0 291 398 592 592 0 0 0 439 141 92 92 0 0 0 373 28zM369 43A576 576 0 0 0 81 43 76 76 0 0 0 27 137 576 576 0 0 0 171 387 76 76 0 0 0 279 387 576 576 0 0 0 423 137 76 76 0 0 0 369 43z" />
</svg>